<?xml version="1.0" encoding="UTF-8"?>
<!DOCTYPE svg PUBLIC "-//W3C//DTD SVG 1.1//EN" "http://www.w3.org/Graphics/SVG/1.1/DTD/svg11.dtd">
<!-- Creator: CorelDRAW 2018 (64 Bit Versión de evaluación) -->
<svg xmlns="http://www.w3.org/2000/svg" xml:space="preserve" width="182.042mm" height="39.8908mm" version="1.1" style="shape-rendering:geometricPrecision; text-rendering:geometricPrecision; image-rendering:optimizeQuality; fill-rule:evenodd; clip-rule:evenodd" viewBox="0 0 17520.63 3839.28"
  xmlns:xlink="http://www.w3.org/1999/xlink">
  <defs>
    <style type="text/css">
      <![CDATA[
    .fil0 {fill:black}
    .fil1 {fill:gray}
    .fil2 {fill:#90BCBD}
   ]]>
    </style>
  </defs>
  <g id="Capa_x0020_1">
    <metadata id="CorelCorpID_0Corel-Layer"/>
    <path class="fil0" d="M9015.33 1221.62c645.89,-68.4 709.58,917.31 123.69,989.53 -658.38,81.16 -724.78,-925.86 -123.69,-989.53zm556.8 -263.66c-29.43,-42.77 -137.47,-119.68 -203.71,-155.76 -565.54,-308.16 -1398.32,19.07 -1386.59,933.13 14.56,1134.77 1226.89,1195.8 1593.49,736.43 29.1,141.4 24.1,215.35 72.66,227.09l510.23 -0.75 -4.24 -1963.47c-83.16,-7.31 -184.42,-2.39 -269.69,-2.39 -392.43,0 -227.5,-28.3 -312.15,225.72z"/>
    <path class="fil0" d="M15254.35 733.71l696.59 1778.95c81.66,209.09 68.26,151.33 -19.1,353.26l-295.84 689.28 663.2 -2.65 1221.43 -2820.24 -677.58 0c-20.5,87.43 -86.22,225.87 -123.15,316.73l-353.3 935.99 -417.72 -1184.36c-18.36,-49.14 -8.54,-44.78 -44.54,-68.44l-649.99 1.48z"/>
    <path class="fil0" d="M13716.68 2697.15c18.52,-289.48 2.26,-639.45 1.79,-935.35 -0.42,-270.11 62.15,-535.96 392.84,-542.82 376.88,-7.82 372.72,324.11 372.67,556.11 -0.07,277.51 -22.09,660.88 3.06,926.65l618.63 0.13c12.43,-99.28 4.19,-768.7 4.21,-926.79 0,-293.83 -9.33,-566.45 -159.41,-773.83 -121.52,-167.93 -306.78,-304.36 -613.81,-311.8 -140.5,-3.39 -270.08,18.96 -387.41,73.76 -61.93,28.92 -100.94,51.23 -151.04,88.3 -53.06,39.27 -74.39,65.2 -126.79,105.97 -26.64,-275.92 -40.67,-226.04 -185.66,-225.29 -120.35,0.62 -273.3,-8.56 -393.11,2.64l1.92 1966.82 622.12 -4.5z"/>
    <path class="fil0" d="M11254.49 1761.8c-0.39,-265.64 68.67,-530.98 384.71,-542.45 383.24,-13.91 380.96,325.39 380.91,555.75 -0.03,156.37 -8.49,829.46 4.47,926.88l618.57 -1.92c24.27,-268.26 2.84,-644.94 2.86,-924.97 0.02,-315.71 -7.05,-542.25 -157.52,-770.07 -204.41,-309.51 -657.93,-396.64 -1000.56,-244.28 -57.64,25.63 -105.21,56.01 -151.6,87.6 -74.2,50.51 -61.98,72.78 -128.36,105.82 -5.25,-38.52 -14.06,-85.07 -19.78,-124.38 -0.9,-6.25 -7.27,-49.64 -9.29,-55.19 -13.78,-37.61 -1.15,-25.87 -32.15,-42.3l-518.21 0.22 3.5 1969.35 618.63 0.01 3.81 -940.08z"/>
    <path class="fil0" d="M7920.77 732.31l-641.2 0c-35.85,19.97 -32.94,26.27 -51.17,74.83l-222.09 561.85c-40.4,116.76 -188.51,596.97 -231.36,658.34 -75.12,-193.47 -379.51,-1126.27 -478.78,-1294.66l-673.54 -0.37 834.05 1969.57 635.35 0.46 828.75 -1970.03z"/>
    <path class="fil0" d="M996.46 1215.02c647.66,-113.93 742.95,812.58 186.48,912.16 -296.47,53.06 -513.41,-117.72 -555.47,-363.03 -52.71,-307.27 112.86,-504.08 368.98,-549.13zm962.6 -74.92c16.64,-42.2 34.73,-61.1 60.93,-88.66 34.6,-36.35 39.11,-46.93 67.05,-79.24 33.39,-38.59 110.88,-114.8 123.51,-153.94 -56.13,-54.34 -154.22,-116.57 -220.65,-163.39 -68.44,-48.22 -158.17,-124.71 -229.82,-159.27 -83.18,79.74 -180.04,237.96 -239.21,276.41 -486.32,-231.22 -1065.5,-13.26 -1307.62,280.02 -314.63,381.08 -264.15,957.5 40.28,1299.34 436.02,489.63 1105.22,154.53 1251.46,516.47 170.69,422.46 -533.79,549.72 -754.64,342.08 -101.98,-95.89 -101.36,-140.8 -127.08,-312.8l-594.88 3.48c-32.44,175.45 26.79,376.33 103.47,502.47 392.43,645.65 1844.75,577.79 2020.26,-225.43 42.1,-192.62 14.93,-362.03 -71.81,-513.09 -106.09,-184.79 -278.87,-247.28 -322.31,-295.09 419.77,-207.43 536.31,-910.87 201.05,-1229.38z"/>
    <path class="fil1" d="M3350.5 1780.95c53.81,910.37 1499.18,861.13 1421.64,-133.58 -70.13,-899.59 -1480.22,-857.07 -1421.64,133.58zm2189.04 862.26c43.54,-412.8 63.22,-839.76 94.56,-1258.6 8.36,-111.94 7.64,-223.78 16.67,-335.7 9.48,-117.3 -38.56,-153.49 -129.55,-189.49 -124.17,-49.11 -156.75,-31.03 -293.09,-16.65 -104.33,11.02 -210.13,9.24 -316.93,13.64 -165.32,6.82 -171.18,18.76 -297.89,-46.25 -246.17,-126.28 -583.11,-150.14 -851.79,-91.25 -314.55,68.95 -230.83,133.87 -513.02,161.9 -151.11,15 -529.9,108.44 -559.41,85.3 160.57,4.67 338.9,53.04 506.31,79.11 -79.32,153.1 -173.48,211.55 -209.83,517.97 -72.92,614.53 277.63,1135.44 971.19,1179.03 491.71,30.9 830.52,-156.76 1015.49,-427.77 100.96,-147.92 163.19,-346.64 168.32,-565.86 7.35,-314.17 -57.3,-369.09 -136.07,-585.58l332 1.12c19.17,97.49 14.46,277.55 22.1,385.26 9.02,127.14 17.72,247.45 30.06,372.12 23.12,233.53 84.63,485.05 102.31,709.6l11.66 -53.31 36.95 65.41z"/>
    <path class="fil1" d="M2415.9 2596.32l305.59 -4.68c16.49,0.88 28.71,-3.2 29.14,-26.96 2.73,-88.34 7.41,-1787.32 -1.94,-1814.91 1.51,-19.24 -27.01,-27.39 -47.38,-27.39 -80.08,-0.04 -251.76,1.75 -285.2,4.08 -6.57,0.45 -20.38,8.15 -20.38,28.52 0.42,610.01 0.84,1203.7 1.26,1813.7 -1.26,19.75 5.13,16.46 18.91,27.63z"/>
    <path class="fil1" d="M2497.89 62.25c-296.91,82.16 -186.32,527.97 155.81,439.79 112.55,-29.01 204.85,-145.35 157.8,-297.76 -34.13,-110.57 -170.68,-181.58 -313.61,-142.03z"/>
    <path class="fil1" d="M4045.13 490.75c10.43,-217.48 -12.79,-247.71 61.4,-278.84 168.95,-70.9 543.68,45.17 548.29,45.89l51.92 8.01c19.85,65.42 14.27,134.43 34.98,203.48 17.83,59.46 59.59,130.07 70.24,173.05 -27.5,-457.59 93.99,-329.75 124.77,-439.17 48.8,-173.38 -261.57,-179.12 -399.17,-193.78 -168.82,-17.99 -353.14,-17.47 -486.06,69.03 -56.54,36.81 -114.12,100.86 -92.6,189.52l86.21 222.83z"/>
    <path class="fil2" d="M4618.79 251.97c-6.91,57.92 3.01,169.54 -21.59,215.07l-254.11 45.69 228.42 19.31c133.12,-1.96 69.64,-44.4 50.66,-278.43 0,0 -3.39,-1.64 -3.39,-1.64z"/>
  </g>
</svg>
